Coordinates
version=1
nRows=8
nColumns=40
inDegrees=yes

Units are S.I. units (second, meters, Newtons, ...)
If the header above contains a line with 'inDegrees', this indicates whether rotational values are in degrees (yes) or radians (no).

endheader
time	pelvis_tilt	pelvis_list	pelvis_rotation	pelvis_tx	pelvis_ty	pelvis_tz	hip_flexion_r	hip_adduction_r	hip_rotation_r	knee_angle_r	knee_angle_r_beta	ankle_angle_r	subtalar_angle_r	mtp_angle_r	hip_flexion_l	hip_adduction_l	hip_rotation_l	knee_angle_l	knee_angle_l_beta	ankle_angle_l	subtalar_angle_l	mtp_angle_l	lumbar_extension	lumbar_bending	lumbar_rotation	arm_flex_r	arm_add_r	arm_rot_r	elbow_flex_r	pro_sup_r	wrist_flex_r	wrist_dev_r	arm_flex_l	arm_add_l	arm_rot_l	elbow_flex_l	pro_sup_l	wrist_flex_l	wrist_dev_l
      5.93500000	     34.78029758	      3.44001951	   -177.35091610	      0.42486464	      0.81331396	     -0.60850893	     63.22483345	     -8.61843802	    -13.88703067	     28.27174828	      0.49343509	      0.34728865	      0.00000000	      0.00000000	     65.05919719	     -8.12761768	     -1.39412051	     28.49685390	      0.49736393	     -2.17567380	      0.00000000	      0.00000000	    -10.67042984	      9.83395262	      1.76537784	     41.35721875	    -12.07396644	     65.68341485	      1.03914465	     84.18331262	      0.00000000	      0.00000000	     31.15337603	     -4.78008593	     87.93882063	      0.61313508	      2.76498186	      0.00000000	      0.00000000
      5.94000000	     34.60843456	      3.45865897	   -177.32339815	      0.42404570	      0.81379593	     -0.60877300	     63.01546808	     -8.58596868	    -13.86343359	     28.31951479	      0.49426878	      0.32983782	      0.00000000	      0.00000000	     64.84122769	     -8.16606106	     -1.38164876	     28.53576170	      0.49804300	     -2.19450803	      0.00000000	      0.00000000	    -10.24085684	      9.78007257	      1.72984479	     40.94599868	    -12.05157794	     65.69658482	      1.02497236	     84.19597918	      0.00000000	      0.00000000	     30.94894466	     -4.82885436	     87.91875716	      0.61677035	      2.76888173	      0.00000000	      0.00000000
      5.94500000	     34.41816700	      3.47444953	   -177.30501443	      0.42319695	      0.81425546	     -0.60904658	     62.77681919	     -8.54239422	    -13.83863050	     28.37042569	      0.49515734	      0.32956146	      0.00000000	      0.00000000	     64.61118971	     -8.20213551	     -1.36030654	     28.57346122	      0.49870098	     -2.19975229	      0.00000000	      0.00000000	     -9.82196013	      9.72042580	      1.68319742	     40.52654269	    -12.02966545	     65.71338850	      1.02525213	     84.20952819	      0.00000000	      0.00000000	     30.66140153	     -4.89403264	     87.89791367	      0.62033770	      2.77457996	      0.00000000	      0.00000000
      5.95000000	     33.88713229	      3.39975624	   -177.19935828	      0.42161887	      0.81525294	     -0.60903693	     62.12322564	     -8.62656282	    -13.84927634	     28.44700580	      0.49649391	      0.82016244	      0.00000000	      0.00000000	     63.92306065	     -8.15461117	     -1.52548931	     28.57812089	      0.49878230	     -1.87682984	      0.00000000	      0.00000000	     -9.76725677	      9.61815349	      1.40845850	     40.21247604	    -11.92408439	     66.11204783	      1.04112170	     84.16417480	      0.00000000	      0.00000000	     30.21758450	     -5.06963163	     87.94926990	      0.63249220	      2.82475989	      0.00000000	      0.00000000
      5.95500000	     33.72355351	      3.42982477	   -177.17687207	      0.42074923	      0.81573403	     -0.60929796	     61.90200053	     -8.57575139	    -13.83629917	     28.49029287	      0.49724942	      0.79859874	      0.00000000	      0.00000000	     63.70830252	     -8.19779527	     -1.52229128	     28.58924963	      0.49897654	     -1.89248272	      0.00000000	      0.00000000	     -9.31789330	      9.56765315	      1.36115342	     39.76899012	    -11.89599562	     66.13094140	      1.03837406	     84.17951219	      0.00000000	      0.00000000	     30.00097115	     -5.13621600	     87.92440357	      0.62905542	      2.82778228	      0.00000000	      0.00000000
      5.96000000	     33.52236046	      3.41405029	   -177.21657742	      0.41960737	      0.81625091	     -0.60965923	     61.64333199	     -8.50517008	    -13.81801222	     28.53562714	      0.49804065	      0.79824521	      0.00000000	      0.00000000	     63.45302932	     -8.22890816	     -1.37790724	     28.65992484	      0.50021005	     -1.89669500	      0.00000000	      0.00000000	     -8.89294734	      9.45813721	      1.34562921	     39.31983454	    -11.85825279	     66.15272213	      1.04709426	     84.19533238	      0.00000000	      0.00000000	     29.63429597	     -5.21448299	     87.89042852	      0.63152440	      2.83328698	      0.00000000	      0.00000000
      5.96500000	     33.16354422	      3.42421113	   -177.25391194	      0.41823109	      0.81701561	     -0.60996198	     61.17970492	     -8.39340151	    -13.76521551	     28.56393029	      0.49853463	      0.97086405	      0.00000000	      0.00000000	     62.96445545	     -8.30128010	     -1.25996885	     28.67496981	      0.50047264	     -1.67007745	      0.00000000	      0.00000000	     -8.66727295	      9.44786678	      1.10761610	     39.06424557	    -11.70515017	     66.35217898	      1.08645193	     84.18403860	      0.00000000	      0.00000000	     29.08045291	     -5.43725139	     87.85669464	      0.62847453	      2.85262889	      0.00000000	      0.00000000
      5.97000000	     32.98000702	      3.46315319	   -177.20341113	      0.41724449	      0.81753089	     -0.61017103	     60.91363791	     -8.35706943	    -13.76815573	     28.58099899	      0.49883254	      1.00639523	      0.00000000	      0.00000000	     62.71164844	     -8.34421393	     -1.30921037	     28.67520339	      0.50047671	     -1.64362216	      0.00000000	      0.00000000	     -8.21701044	      9.40411445	      1.04717435	     38.63479500	    -11.67847852	     66.40632118	      1.06603241	     84.19894703	      0.00000000	      0.00000000	     28.83503706	     -5.50007869	     87.82973496	      0.63835787	      2.85891299	      0.00000000	      0.00000000
